# xmcd
#
# Track frame offsets: 
#        150
#        35746
#        100053
#        139349
#
# Disc length: 2897 seconds
#
# Revision: 0
# Processed by: cddbd v1.5.2PL0 Copyright (c) Steve Scherf et al.
# Submitted via: ExactAudioCopy v0.99pb5
#
DISCID=330b4f04
DTITLE=Cream  - Synergy - Disc 2  MA-002
DYEAR=1900
DGENRE=
TTITLE0=Sitting On Top of the World
TTITLE1=Steppin' Out
TTITLE2=Traintime
TTITLE3=Toad
EXTD=
EXTT0=
EXTT1=
EXTT2=
EXTT3=
PLAYORDER=
